<?xml version="1.0" encoding="UTF-8"?>
<svg width="381" height="390" xmlns="http://www.w3.org/2000/svg">
 <path d="m381 390h-381v-390h381zm-225-51v-50l0.58-9.5c0.57-9.5 0.57-9.5 8.2-9.5 7.62 0 7.62 0 21.22 14l9.75 12.68c5.36 6.97 11.66 14.62 18.25 21.32l16 19 1.75 1.42c0.96 0.78 1.46 1.45 1.1 1.5-0.35 0.04-0.01 0.76 2.15 3.08l51.52 0.75c35.94 0.52 52.34 0.42 54.25-0.33 2.73-1.07 2.73-1.07-25.77-36.42l-22-27-31-38-4-5.03c-5.84-7.34-5.89-7.24 6.68-13.89 8.56-4.53 13.18-7.8 28.32-22.08l6.75-10.25c5.42-8.23 7.49-12.56 14.25-33.75l1-9 0.25-5.75c0.55-12.59-6.37-43.54-10.25-42.25l-1.46-2.75c-0.8-1.51-2.21-4.71-3.13-7.11-2.24-5.83-19.05-23.36-31.41-30.14l-2.25-1.75c-1.24-0.96-8.39-3.77-15.89-6.25-13.65-4.5-13.65-4.5-166.86-5h-15v50 32 15l-0.03 22.75c-0.04 27.17-0.07 27.1 7.04 21.77 7.3-5.48 7.99-7.68 7.99-40.52v-22-38-12.5c0-12.5 0-12.5 13-12.5h10 127l10.01 2.25c5.5 1.24 10.45 2.59 11.99 3.75l6.75 4.31c10.78 6.9 22.55 19.53 33.25 39.69l2.2 9.75c1.5 6.69 2.13 12.5 1.8 27.25v3l-0.39 0.75c-0.21 0.41-1.77 5.12-3.46 10.47-4.84 15.28-13.05 27.45-33.15 42.78l-6.17 3.25c-3.39 1.79-11.54 4.63-18.11 6.31-14.71 3.77-14.64 3.08 8.28 29.44l34 42 15 17 8.56 11.16c4.71 6.14 8.42 11.83 8.25 12.65-0.38 1.79-67.62 1.9-70.95 0.11-1.03-0.55-4.12-3.68-11.86-12.92l-21-25-2-3-5-5-5.49-7.75c-13.95-19.7-14.94-20.28-34.89-20.27-22.28 0.02-20.62-1.43-20.62 33.02v24 18h-28.13c-27.35 0-28.15-0.06-28.87-4v-37l0.25-17.25c0.14-9.49 0.81-20.06 2.75-29.75l4.75-9.75c3.71-7.61 6.23-11.23 18.25-23.25l3.2-1.75c17.66-9.67 17.59-9.66 68.8-10.03 52.21-0.37 56.25-0.76 67.5-6.45 8.02-4.05 18.7-14.44 25.5-27.77l2.25-6.31c1.73-4.84 2.19-8.08 1.75-21.69l-1.75-8.04c-2.05-9.44-3.74-13.96-6.25-13.96l-1-2-0.25-1.72c-0.14-0.94-1.26-2.74-4.75-6.28l-2.78-3.25c-4.34-5.09-18.5-12.7-27.66-14.87-11.18-2.65-125.37-2.92-127.99-0.31-1.29 1.29-1.57 4.31-1.57 32.43v15 21 7.67c0 9.33-0.85 8.71 7.78 5.64 7.22-2.58 7.22-2.58 7.22-14.31v-32-21l55.75 0.25c43.43 0.19 56.74 0.55 60.25 1.6 6.43 1.94 15.41 7.63 21 15.15l3.25 6.88c2.56 5.42 3.3 8.38 3.75 21.12l-2 12-5.25 7.75c-7.11 10.49-16.3 16.37-34.75 18.25h-12l-18-21-1.75-2.54c-1.59-2.31-11.62-14.38-15.25-18.36-0.82-0.9-2.74-3.1-7-8.1l-4.82-6.25c-4.82-6.25-4.82-6.25-13.5-6.54s-8.68-0.29-8.68 9.79v27l0.04 10.25c0.06 16.27 0.77 15.14-11.42 18.19-12.41 3.11-22.84 8.08-34.62 18.56l-7.25 8.25c-6.23 7.09-7.85 9.76-15.75 29.75l-1.66 9.25c-0.92 5.09-1.6 10.94-1.34 16.75v11 1 48l0.25 7.12c0.37 10.69-3.21 9.88 43.99 9.88 41.16 0 41.16 0 42.76-5zm-48-30h9l1.51-0.25c1.14-0.19 1.5-1.65 1.49-11.75v-29l-0.03-4.75c-0.07-12.33 5.08-21.09 22.03-29.25h48l4.48 5.25c2.47 2.89 5.51 6.49 6.75 8.01 1.25 1.51 3.28 3.87 6.77 7.74l31 38 13 15 14 1 2.17-0.25c1.9-0.22 1.15-1.48-14.17-19.75l-33-40-5.62-7.25c-3.09-3.99-8.68-10.85-19.23-23.25h-28.38c-28.38 0-28.38 0-35.83 3.01-10.61 4.3-19.35 13.04-25.94 30.49l-1 29v14c0 11.78 0.24 14 3 14zm48-127v-28l0.5-13.03 9.5 11.03 24 30z" fill="rgba(0,0,0,0)"/>
 <path d="m95 203c11.78-10.48 22.21-15.45 34.62-18.56 12.19-3.05 11.48-1.92 11.42-18.19l-0.04-10.25 0.93-1.69c0.79-1.42 1.05-1.23 1.67 1.22 2.02 8.07 7.5 8.88 12.4-1.53v28l15.75 0.68c8.66 0.38 16.31 0.38 18.25-0.68l-24-30 0.87-0.25c0.48-0.14 1.71 0.46 2.75 1.33 1.11 0.93 3.37 1.49 5.5 1.36 4.44-0.27 5.38 0.35 5.38 3.56 0 2.04 0.56 2.56 3 2.84 1.65 0.18 3.57 0.81 4.27 1.39 0.89 0.73 1.71 0.7 4.23-1.23l18 21h12c18.45-1.88 27.64-7.76 34.75-18.25l5.25-7.75 0.79 1.75c0.47 1.02 0.98 1.29 1.25 0.64 0.76-1.84 7.48-0.14 10.96 4.61-6.8 13.33-17.48 23.72-25.5 27.77-11.25 5.69-15.29 6.08-67.5 6.45-51.21 0.37-51.14 0.36-68.8 10.03l-3.2 1.75-2.87-2.25c-2.04-1.6-4.21-2.25-7.5-2.25-2.55 0-4.63-0.34-4.63-1.5z" fill="rgba(73,150,232,0.988235)"/>
 <path d="m84 47c153.21 0.5 153.21 0.5 166.86 5 7.5 2.48 14.65 5.29 15.89 6.25l2.25 1.75 0.75 0.97c0.41 0.54 1.87 2.37 3.25 4.08 4.22 5.26-0.54 7.9-17 3.95-1.54-1.16-6.49-2.51-11.99-3.75l-10.01-2.25-0.75-1.07c-1.01-1.45-124.94-1.37-126.25 1.07h-10l-0.54-1c-0.7-1.31-11.05-1.29-13.52 0.03-1.06 0.57-2.79 2.82-3.84 5-3.96 8.2-7.1 5.08-7.1-7.04 0-9.21 1.14-10.99 7.04-10.99 2.14 0 4.13-0.45 4.96-2z" fill="rgba(45,244,252,0.988235)"/>
 <path d="m105 117c0-28.12 0.28-31.14 1.57-32.43 2.62-2.61 116.81-2.34 127.99 0.31 9.16 2.17 23.32 9.78 27.66 14.87l2.78 3.25-0.25 0.94c-0.14 0.52 0.99 2.32 5.25 7.06l1 2-1.75-0.62c-0.96-0.35-2.31-0.55-3-0.46-1.91 0.26-1.49 3.88 0.5 4.31 1.03 0.22 0.28 0.67-1.79 1.08-1.95 0.39-4.54 0.25-7.96-1.31-5.59-7.52-14.57-13.21-21-15.15-3.51-1.05-16.82-1.41-60.25-1.6l-55.75-0.25-1 0.78c-0.55 0.43-1.01 4.82-1.02 9.75 0 4.93-0.45 9.64-0.98 10.47-0.67 1.03-0.97 1.1-0.98 0.23-0.03-2.2-5.03-3.92-6.38-2.19-0.93 1.19-1.47 1.23-4.64-1.04z" fill="rgba(53,226,249,0.988235)"/>
 <path d="m235 343 2.25-0.69c1.24-0.37 2.38-0.76 2.53-0.86 0.49-0.32-6.94-7.45-7.76-7.45-0.43 0-1.06 0.68-2.02 3l-16-19-2.08-3.64c-5.82-10.15 1.07-11.77 18.08 1.64 7.74 9.24 10.83 12.37 11.86 12.92 3.33 1.79 70.57 1.68 70.95-0.11 0.17-0.82-3.54-6.51-8.25-12.65l-8.56-11.16-0.58-2.14c-1.67-6.22 6.2-6.17 19.58 4.14 28.5 35.35 28.5 35.35 25.77 36.42-1.91 0.75-18.31 0.85-54.25 0.33z" fill="rgba(66,38,153,0.956863)"/>
 <path d="m69 327 1-0.95c0.55-0.52 1.02-5.35 1.05-10.75 0.06-12.57 1.7-17.81 5.56-17.77 4.11 0.04 5.65 4.07 7.39 28.47 0.72 3.94 1.52 4 28.87 4h28.13v-18l0.92-1.25c0.51-0.69 1.3-3.5 1.75-6.25 0.8-4.83 0.94-5 4.14-5 4.99 0 6.11 3.58 8.19 39.5-1.6 5-1.6 5-42.76 5-47.2 0-43.62 0.81-43.99-9.88z" fill="rgba(66,38,153,0.956863)"/>
 <path d="m106 252c6.59-17.45 15.33-26.19 25.94-30.49 7.45-3.01 7.45-3.01 35.83-3.01h28.38c10.55 12.4 16.14 19.26 19.23 23.25l5.62 7.25-4.84 1.25c-2.66 0.69-5.58 2.04-8.16 4.75-3.49-3.87-5.52-6.23-6.77-7.74-1.24-1.52-4.28-5.12-6.75-8.01l-4.48-5.25h-48c-16.95 8.16-22.1 16.92-22.03 29.25l0.03 4.75-0.44-0.27c-0.25-0.16-0.58-4.01-0.75-8.58-0.34-9.42-1.55-10.5-12.81-7.15z" fill="rgba(73,132,226,0.988235)"/>
 <path d="m141 288c0-34.45-1.66-33 20.62-33.02 19.95-0.01 20.94 0.57 34.89 20.27l5.49 7.75-2.75-1.13c-5.56-2.3-10.32-2.29-13.25 2.13-13.6-14-13.6-14-21.22-14-7.63 0-7.63 0-8.2 9.5l-0.58 9.5-0.75-1.75c-2.02-4.71-5.88-5.33-14.25 0.75z" fill="rgba(76,102,209,0.988235)"/>
 <path d="m263 207 0.93 1.24c2.6 3.44 14.37-3.17 16.47-9.26 2.43-7.08 11.83-8.02 12.6 2.02-15.14 14.28-19.76 17.55-28.32 22.08-12.57 6.65-12.52 6.55-6.68 13.89l4 5.03-0.75 1.07c-1.17 1.67-2.14 1.17-3.5-1.82-2.11-4.63-8.12-3.5-10.75 4.75-22.92-26.36-22.99-25.67-8.28-29.44 6.57-1.68 14.72-4.52 18.11-6.31z" fill="rgba(73,132,226,0.988235)"/>
 <path d="m296 113c-10.7-20.16-22.47-32.79-33.25-39.69l-6.75-4.31c16.46 3.95 21.22 1.31 17-3.95-1.38-1.71-2.84-3.54-3.25-4.08l-0.75-0.97c12.36 6.78 29.17 24.31 31.41 30.14 0.92 2.4 2.33 5.6 3.13 7.11l1.46 2.75 2.1 5.75c3.15 8.63 3.12 8.79-2.1 8.52-2.47-0.13-5.51-0.47-9-1.27z" fill="rgba(53,226,249,0.988235)"/>
 <path d="m247 246c2.63-8.25 8.64-9.38 10.75-4.75 1.36 2.99 2.33 3.49 3.5 1.82l0.75-1.07 31 38-0.75 1.07c-0.41 0.59-2.32 1.04-4.25 1-2.86-0.06-3.81 0.47-7 5.93z" fill="rgba(76,102,209,0.988235)"/>
 <path d="m263 207c20.1-15.33 28.31-27.5 33.15-42.78 1.69-5.35 3.25-10.06 3.46-10.47l0.39-0.75 0.75 2.15c0.75 2.14 0.75 2.14 1.94 0.12 1.82-3.14 7.77-3.48 11.31 1.73-6.76 21.19-8.83 25.52-14.25 33.75l-6.75 10.25c-0.77-10.04-10.17-9.1-12.6-2.02-2.1 6.09-13.87 12.7-16.47 9.26z" fill="rgba(73,150,232,0.988235)"/>
 <path d="m69 97v-50h15c-0.83 1.55-2.82 2-4.96 2-5.9 0-7.04 1.78-7.04 10.99 0 12.12 3.14 15.24 7.1 7.04 1.05-2.18 2.78-4.43 3.84-5 2.47-1.32 12.82-1.34 13.52-0.03l0.54 1c-13 0-13 0-13 12.5v12.5l-0.59 9.75c-0.72 12.09-2.75 17.58-6.7 18.17-4.38 0.66-5.89-1.74-7.71-18.92z" fill="rgba(53,226,249,0.988235)"/>
 <path d="m208 255c2.58-2.71 5.5-4.06 8.16-4.75l4.84-1.25 33 40-4.25 0.76c-2.34 0.42-5.71 1.32-10.75 3.24z" fill="rgba(76,102,209,0.988235)"/>
 <path d="m141 156v-27l0.83 5.75c0.84 5.75 0.84 5.75 6.25 5.48 2.98-0.15 7.63-1.21 10.32-2.35 2.7-1.14 5.96-2.26 7.25-2.49 1.29-0.24 2.35-1.1 2.35-3.39 4.26 5 6.18 7.2 7 8.1 3.63 3.98 13.66 16.05 15.25 18.36l1.75 2.54c-2.52 1.93-3.34 1.96-4.23 1.23-0.7-0.58-2.62-1.21-4.27-1.39-2.44-0.28-3-0.8-3-2.84 0-3.21-0.94-3.83-5.38-3.56-2.13 0.13-4.39-0.43-5.5-1.36-1.04-0.87-2.27-1.47-2.75-1.33l-0.87 0.25-9.5-11.03-0.5 13.03c-4.9 10.41-10.38 9.6-12.4 1.53-0.62-2.45-0.88-2.64-1.67-1.22z" fill="rgba(68,181,242,0.988235)"/>
 <path d="m72 241c7.9-19.99 9.52-22.66 15.75-29.75l7.25-8.25c0 1.16 2.08 1.5 4.63 1.5 3.29 0 5.46 0.65 7.5 2.25l2.87 2.25c-12.02 12.02-14.54 15.64-18.25 23.25l-4.75 9.75h-1.21c-0.67 0-1.59-0.67-2.05-1.5-0.46-0.82-2.13-1.5-3.71-1.5-1.57 0-3.05-0.56-3.28-1.25-0.24-0.72-1.02-0.11-1.84 1.46-0.78 1.49-1.76 2.5-2.91 1.79z" fill="rgba(73,132,226,0.988235)"/>
 <path d="m69 279v-1-11c-0.26-5.81 0.42-11.66 1.34-16.75l1.66-9.25c1.15 0.71 2.13-0.3 2.91-1.79 0.82-1.57 1.6-2.18 1.84-1.46 0.23 0.69 1.71 1.25 3.28 1.25 1.58 0 3.25 0.68 3.71 1.5 0.46 0.83 1.38 1.5 2.05 1.5h1.21c-1.94 9.69-2.61 20.26-2.75 29.75l-0.25 17.25-0.81-4.67c-1.61-9.3-11.81-10.66-12.38-1.65-0.31 4.82-0.31 4.82-1.81-3.68z" fill="rgba(76,102,209,0.988235)"/>
 <path d="m69 144 0.61 3.75c1.02 6.24 1.51 6.68 7.1 6.38 4.57-0.24 5.17-0.55 7.29-6.13 0 32.84-0.69 35.04-7.99 40.52-7.11 5.33-7.08 5.4-7.04-21.77z" fill="rgba(73,150,232,0.988235)"/>
 <path d="m186 284c2.93-4.42 7.69-4.43 13.25-2.13l2.75 1.13 5 5 0.25 1.25c0.14 0.69 0.59 1.36 1.75 1.75l21 25c-17.01-13.41-23.9-11.79-18.08-1.64l2.08 3.64c-6.59-6.7-12.89-14.35-18.25-21.32z" fill="rgba(73,68,181,0.988235)"/>
 <path d="m105 281 1-29c11.26-3.35 12.47-2.27 12.81 7.15 0.17 4.57 0.5 8.42 0.75 8.58l0.44 0.27v29l-0.74-5.25c-1.24-8.76-6.54-14.62-10.21-11.29-1.04 0.93-2.37 1.44-4.05 0.54z" fill="rgba(76,102,209,0.988235)"/>
 <path d="m141 129c0-10.08 0-10.08 8.68-9.79s8.68 0.29 13.5 6.54l4.82 6.25c0 2.29-1.06 3.15-2.35 3.39-1.29 0.23-4.55 1.35-7.25 2.49-2.69 1.14-7.34 2.2-10.32 2.35-5.41 0.27-5.41 0.27-6.25-5.48z" fill="rgba(68,196,244,0.988235)"/>
 <path d="m300 150c0.33-14.75-0.3-20.56-1.8-27.25l-2.2-9.75c3.49 0.8 6.53 1.14 9 1.27 5.22 0.27 5.25 0.11 2.1-8.52l-2.1-5.75c3.88-1.29 10.8 29.66 10.25 42.25l-0.25 5.75-0.72-5.75c-0.86-6.89-1.81-7.65-7.74-6.16-4.54 1.15-4.54 1.15-4.54 7.53 0 3.59-0.44 6.38-2 6.38z" fill="rgba(68,196,244,0.988235)"/>
 <path d="m264 144c-0.45-12.74-1.19-15.7-3.75-21.12l-3.25-6.88c3.42 1.56 6.01 1.7 7.96 1.31 2.07-0.41 2.82-0.86 1.79-1.08-1.99-0.43-2.41-4.05-0.5-4.31 0.69-0.09 2.04 0.11 3 0.46l1.75 0.62c2.51 0 4.2 4.52 6.25 13.96l1.75 8.04-0.67 0.41c-0.36 0.23-0.66 1.13-0.66 2 0 1.3-0.58 1.43-3.17 0.72-4.68-1.29-7.87 0.74-8.5 5.41-0.36 2.66-0.71 3.26-2 0.46z" fill="rgba(68,196,244,0.988235)"/>
 <path d="m69 327v-48c1.5 8.5 1.5 8.5 1.81 3.68 0.57-9.01 10.77-7.65 12.38 1.65l0.81 4.67v37c-1.74-24.4-3.28-28.43-7.39-28.47-3.86-0.04-5.5 5.2-5.56 17.77-0.03 5.4-0.5 10.23-1.05 10.75z" fill="rgba(73,68,181,0.988235)"/>
 <path d="m105 153v-21l1.77 3.25c1.13 2.09 2.93 3.6 5.03 4.22 5.53 1.63 6.61 0.14 8.2-19.47v32l-1.5 1.07c-0.91 0.64-1.5 2.65-1.5 5.09 0 3.71-0.27 4.11-3.41 5.07-5.5 1.69-6.78 0.62-6.5-5.48 0.16-3.57-0.14-5.17-2.09-4.75z" fill="rgba(68,181,242,0.988235)"/>
 <path d="m296 305-15-17c3.19-5.46 4.14-5.99 7-5.93 1.93 0.04 3.84-0.41 4.25-1l0.75-1.07 22 27c-13.38-10.31-21.25-10.36-19.58-4.14z" fill="rgba(73,68,181,0.988235)"/>
 <path d="m69 129v-32c1.82 17.18 3.33 19.58 7.71 18.92 3.95-0.59 5.98-6.08 6.7-18.17l0.59-9.75v38l-0.74 3.25c-1.96 8.66-8.64 9.16-14.26-0.25z" fill="rgba(68,196,244,0.988235)"/>
 <path d="m105 132v-15c3.17 2.27 3.71 2.23 4.64 1.04 1.35-1.73 6.35-0.01 6.38 2.19 0.01 0.87 0.31 0.8 0.98-0.23 0.53-0.83 0.98-5.54 0.98-10.47 0.01-4.93 0.47-9.32 1.02-9.75l1-0.78v21c-1.59 19.61-2.67 21.1-8.2 19.47-2.1-0.62-3.9-2.13-5.03-4.22z" fill="rgba(68,196,244,0.988235)"/>
 <path d="m262 156 2-12c1.29 2.8 1.64 2.2 2-0.46 0.63-4.67 3.82-6.7 8.5-5.41 2.59 0.71 3.17 0.58 3.17-0.72 0-0.87 0.3-1.77 0.66-2l0.67-0.41c0.44 13.61-0.02 16.85-1.75 21.69l-2.25 6.31c-3.48-4.75-10.2-6.45-10.96-4.61-0.27 0.65-0.78 0.38-1.25-0.64z" fill="rgba(68,181,242,0.988235)"/>
 <path d="m141 312v-24c8.37-6.08 12.23-5.46 14.25-0.75l0.75 1.75v50c-2.08-35.92-3.2-39.5-8.19-39.5-3.2 0-3.34 0.17-4.14 5-0.45 2.75-1.24 5.56-1.75 6.25z" fill="rgba(73,68,181,0.988235)"/>
 <path d="m105 281c1.68 0.9 3.01 0.39 4.05-0.54 3.67-3.33 8.97 2.53 10.21 11.29l0.74 5.25c0.01 10.1-0.35 11.56-1.49 11.75l-1.51 0.25 0.04-2.75c0.09-6.76-0.78-8.4-4.28-8.06-4.19 0.4-7.36 5.1-4.76 10.81-2.76 0-3-2.22-3-14z" fill="rgba(73,68,181,0.988235)"/>
 <path d="m69 144v-15c5.62 9.41 12.3 8.91 14.26 0.25l0.74-3.25v22c-2.12 5.58-2.72 5.89-7.29 6.13-5.59 0.3-6.08-0.14-7.1-6.38z" fill="rgba(68,181,242,0.988235)"/>
 <path d="m107 63c1.31-2.44 125.24-2.52 126.25-1.07l0.75 1.07z" fill="rgba(53,226,249,0.988235)"/>
 <path d="m300 153v-3c1.56 0 2-2.79 2-6.38 0-6.38 0-6.38 4.54-7.53 5.93-1.49 6.88-0.73 7.74 6.16l0.72 5.75-1 9c-3.54-5.21-9.49-4.87-11.31-1.73-1.19 2.02-1.19 2.02-1.94-0.12z" fill="rgba(68,181,242,0.988235)"/>
 <path d="m266 309-0.25-2.23c-0.38-3.4-6.42-6.83-10.75-6.11-4.68 0.78-5.46 1.68-3 7.34l-13-15c5.04-1.92 8.41-2.82 10.75-3.24l4.25-0.76c15.32 18.27 16.07 19.53 14.17 19.75z" fill="rgba(73,68,181,0.988235)"/>
 <path d="m252 308c-2.46-5.66-1.68-6.56 3-7.34 4.33-0.72 10.37 2.71 10.75 6.11l0.25 2.23z" fill="rgba(66,38,153,0.956863)"/>
 <path d="m108 309c-2.6-5.71 0.57-10.41 4.76-10.81 3.5-0.34 4.37 1.3 4.28 8.06l-0.04 2.75z" fill="rgba(66,38,153,0.956863)"/>
 <path d="m105 153c1.95-0.42 2.25 1.18 2.09 4.75-0.28 6.1 1 7.17 6.5 5.48 3.14-0.96 3.41-1.36 3.41-5.07 0-2.44 0.59-4.45 1.5-5.09l1.5-1.07c0 11.73 0 11.73-7.22 14.31-8.63 3.07-7.78 3.69-7.78-5.64z" fill="rgba(73,150,232,0.988235)"/>
 <path d="m142 234h48z" fill="rgba(76,102,209,0.988235)"/>
 <path d="m235 343c-2.16-2.32-2.5-3.04-2.15-3.08 0.36-0.05-0.14-0.72-1.1-1.5l-1.75-1.42c0.96-2.32 1.59-3 2.02-3 0.82 0 8.25 7.13 7.76 7.45-0.15 0.1-1.29 0.49-2.53 0.86z" fill="rgba(73,68,181,0.988235)"/>
 <path d="m156 182h34c-1.94 1.06-9.59 1.06-18.25 0.68z" fill="rgba(73,132,226,0.988235)"/>
 <path d="m265 103c3.49 3.54 4.61 5.34 4.75 6.28l0.25 1.72c-4.26-4.74-5.39-6.54-5.25-7.06z" fill="rgba(68,196,244,0.988235)"/>
 <path d="m210 182h12z" fill="rgba(73,132,226,0.988235)"/>
 <path d="m69 278v-11z" fill="rgba(73,68,181,0.988235)"/>
 <path d="m207 288 2 3c-1.16-0.39-1.61-1.06-1.75-1.75z" fill="rgba(76,102,209,0.988235)"/>
</svg>
